Coordinates
version=1
nRows=9
nColumns=24
inDegrees=yes

Units are S.I. units (second, meters, Newtons, ...)
Angles are in degrees.

endheader
time	pelvis_tilt	pelvis_list	pelvis_rotation	pelvis_tx	pelvis_ty	pelvis_tz	hip_flexion_r	hip_adduction_r	hip_rotation_r	knee_angle_r	ankle_angle_r	subtalar_angle_r	mtp_angle_r	hip_flexion_l	hip_adduction_l	hip_rotation_l	knee_angle_l	ankle_angle_l	subtalar_angle_l	mtp_angle_l	lumbar_extension	lumbar_bending	lumbar_rotation
      5.47000000	     -8.27665232	     -7.07464859	      3.06685011	     -0.88839615	     -0.01751212	      2.06213226	      1.28583536	     13.26431718	    -13.15715942	     -6.80704921	      5.24008243	     -1.40521121	     11.62992662	     37.31031927	     -5.02032140	      2.92319463	    -40.95153395	     -4.28551003	     -5.43306822	     35.02216481	      3.93953232	      6.21661378	      0.86869346
      5.48000000	     -8.38295261	     -6.85743494	      3.04798938	     -0.87667364	     -0.01849460	      2.06215771	      0.31495959	     13.09924712	    -13.48039680	     -6.29804549	      5.56726065	     -0.71948969	     11.83674384	     37.60615533	     -4.71717076	      2.22542235	    -37.59678821	     -4.34243291	     -4.39019653	     34.67098769	      3.94204910	      6.01199314	      1.09922614
      5.49000000	     -8.46924665	     -6.65152771	      3.01897034	     -0.86486826	     -0.01957557	      2.06206755	     -0.63884829	     12.93118769	    -13.79413455	     -5.87529354	      5.88878730	     -0.03247716	     11.99918225	     37.73099031	     -4.43436543	      1.42694261	    -34.08656800	     -4.48238473	     -3.18733706	     34.35592619	      3.92682598	      5.82892662	      1.30889639
      5.50000000	     -8.51531296	     -6.44668171	      3.00003509	     -0.85293941	     -0.02071896	      2.06181600	     -1.58700577	     12.74345288	    -14.10341658	     -5.56333448	      6.20508215	      0.65373861	     12.08682183	     37.67343538	     -4.13674288	      0.55517217	    -30.48556901	     -4.64941303	     -1.88868661	     34.02529815	      3.87968124	      5.66258909	      1.49467991
      5.51000000	     -8.51611629	     -6.23851139	      2.97219584	     -0.84086028	     -0.02189914	      2.06144684	     -2.51880405	     12.52613099	    -14.42267187	     -5.39884188	      6.52762659	      1.36601254	     12.08920312	     37.44879908	     -3.82281887	     -0.37200756	    -26.88615951	     -4.74983546	     -0.56576482	     33.63512520	      3.79535747	      5.50237018	      1.66753926
      5.52000000	     -8.37298872	     -5.97982253	      3.03007400	     -0.82859732	     -0.02299450	      2.06081868	     -3.54181295	     12.22730113	    -14.83384440	     -5.37806294	      6.88546299	      2.14451643	     11.90140437	     36.97267440	     -3.37213086	     -1.19629402	    -23.36424634	     -4.74439931	      0.59963534	     32.82979652	      3.57620027	      5.29913304	      1.71893640
      5.53000000	     -8.43864068	     -5.80386405	      2.90199598	     -0.81620619	     -0.02438137	      2.06030122	     -4.21265195	     11.95789405	    -15.12769710	     -5.63028579	      7.22292133	      2.92283017	     11.80558097	     36.70914866	     -3.09285204	     -2.19416146	    -20.10993963	     -4.48410565	      1.85756048	     32.32852658	      3.58116741	      5.19666201	      1.94075596
      5.54000000	     -8.29183152	     -5.49215047	      2.88202997	     -0.80356152	     -0.02551931	      2.05945831	     -5.05283617	     11.50267247	    -15.51510002	     -6.04911679	      7.69622546	      3.85186103	     11.02359589	     36.14359297	     -2.56137743	     -2.90948148	    -17.10320758	     -3.97727517	      2.72708876	     29.95821618	      3.38426077	      4.96042290	      2.02532484
      5.55000000	     -8.33146550	     -5.30940104	      2.73602004	     -0.79087114	     -0.02690788	      2.05870474	     -5.56726741	     11.12496551	    -15.83902939	     -6.68672827	      7.97908499	      4.73359777	     11.01634832	     35.82627033	     -2.23625490	     -3.77054461	    -14.44422764	     -3.58086767	      3.60670174	     29.60783524	      3.38295605	      4.86533055	      2.20065123
